<?xml version="1.0" encoding="UTF-8" standalone="no"?><svg xmlns="http://www.w3.org/2000/svg" xmlns:xlink="http://www.w3.org/1999/xlink" contentScriptType="application/ecmascript" contentStyleType="text/css" height="729px" preserveAspectRatio="none" style="width:854px;height:729px;" version="1.1" viewBox="0 0 854 729" width="854px" zoomAndPan="magnify"><defs><filter height="300%" id="fi4t2dwj3p2y1" width="300%" x="-1" y="-1"><feGaussianBlur result="blurOut" stdDeviation="2.0"/><feColorMatrix in="blurOut" result="blurOut2" type="matrix" values="0 0 0 0 0 0 0 0 0 0 0 0 0 0 0 0 0 0 .4 0"/><feOffset dx="4.0" dy="4.0" in="blurOut2" result="blurOut3"/><feBlend in="SourceGraphic" in2="blurOut3" mode="normal"/></filter></defs><g><ellipse cx="375.25" cy="20" fill="#000000" filter="url(#fi4t2dwj3p2y1)" rx="10" ry="10" style="stroke:none;stroke-width:1.0;"/><rect fill="#FEFECE" filter="url(#fi4t2dwj3p2y1)" height="33.9688" rx="12.5" ry="12.5" style="stroke:#A80036;stroke-width:1.5;" width="35" x="357.75" y="50"/><text fill="#000000" font-family="sans-serif" font-size="12" lengthAdjust="spacing" textLength="15" x="367.75" y="71.1387">ctl</text><rect fill="#FEFECE" filter="url(#fi4t2dwj3p2y1)" height="33.9688" rx="12.5" ry="12.5" style="stroke:#A80036;stroke-width:1.5;" width="124" x="313.25" y="103.9688"/><text fill="#000000" font-family="sans-serif" font-size="12" lengthAdjust="spacing" textLength="104" x="323.25" y="125.1074">workCountOf(ctl)</text><path d="M109.25,207.207 L109.25,232.3398 L273.25,232.3398 L273.25,217.207 L263.25,207.207 L109.25,207.207 " fill="#FBFB77" filter="url(#fi4t2dwj3p2y1)" style="stroke:#A80036;stroke-width:1.0;"/><path d="M263.25,207.207 L263.25,217.207 L273.25,217.207 L263.25,207.207 " fill="#FBFB77" style="stroke:#A80036;stroke-width:1.0;"/><text fill="#000000" font-family="sans-serif" font-size="13" lengthAdjust="spacing" textLength="143" x="115.25" y="224.2739">开启新核心线程执行任务</text><path d="M127.25,252.3398 L127.25,277.4727 L255.25,277.4727 L255.25,262.3398 L245.25,252.3398 L127.25,252.3398 " fill="#FBFB77" filter="url(#fi4t2dwj3p2y1)" style="stroke:#A80036;stroke-width:1.0;"/><path d="M245.25,252.3398 L245.25,262.3398 L255.25,262.3398 L245.25,252.3398 " fill="#FBFB77" style="stroke:#A80036;stroke-width:1.0;"/><text fill="#000000" font-family="sans-serif" font-size="13" lengthAdjust="spacing" textLength="107" x="133.25" y="269.4067">往阻塞队列里offer</text><polygon fill="#FEFECE" filter="url(#fi4t2dwj3p2y1)" points="305.25,206.3398,445.25,206.3398,457.25,218.3398,445.25,230.3398,305.25,230.3398,293.25,218.3398,305.25,206.3398" style="stroke:#A80036;stroke-width:1.5;"/><text fill="#000000" font-family="sans-serif" font-size="11" lengthAdjust="spacing" textLength="140" x="305.25" y="222.1479">addWorker(worker, core)</text><text fill="#000000" font-family="sans-serif" font-size="11" lengthAdjust="spacing" textLength="20" x="457.25" y="215.7456">yes</text><ellipse cx="499.25" cy="218.3398" fill="#FFFFFF" filter="url(#fi4t2dwj3p2y1)" rx="11" ry="11" style="stroke:#000000;stroke-width:1.0;"/><ellipse cx="499.25" cy="218.3398" fill="#000000" rx="6" ry="6" style="stroke:#7F7F7F;stroke-width:1.0;"/><polygon fill="#FEFECE" filter="url(#fi4t2dwj3p2y1)" points="335.25,157.9375,415.25,157.9375,427.25,169.9375,415.25,181.9375,335.25,181.9375,323.25,169.9375,335.25,157.9375" style="stroke:#A80036;stroke-width:1.5;"/><text fill="#000000" font-family="sans-serif" font-size="11" lengthAdjust="spacing" textLength="20" x="379.25" y="192.1479">yes</text><text fill="#000000" font-family="sans-serif" font-size="11" lengthAdjust="spacing" textLength="80" x="335.25" y="173.7456">wc &lt; coreSize</text><polygon fill="#FEFECE" filter="url(#fi4t2dwj3p2y1)" points="375.25,302.7422,387.25,314.7422,375.25,326.7422,363.25,314.7422,375.25,302.7422" style="stroke:#A80036;stroke-width:1.5;"/><polygon fill="#FEFECE" filter="url(#fi4t2dwj3p2y1)" points="261.25,346.7422,489.25,346.7422,501.25,358.7422,489.25,370.7422,261.25,370.7422,249.25,358.7422,261.25,346.7422" style="stroke:#A80036;stroke-width:1.5;"/><text fill="#000000" font-family="sans-serif" font-size="11" lengthAdjust="spacing" textLength="228" x="261.25" y="362.5503">isRunning(ctl) &amp;&amp; workers.offer(worker)</text><text fill="#000000" font-family="sans-serif" font-size="11" lengthAdjust="spacing" textLength="14" x="501.25" y="356.1479">no</text><rect fill="#FEFECE" filter="url(#fi4t2dwj3p2y1)" height="33.9688" rx="12.5" ry="12.5" style="stroke:#A80036;stroke-width:1.5;" width="43" x="178.5" y="380.7422"/><text fill="#000000" font-family="sans-serif" font-size="12" lengthAdjust="spacing" textLength="23" x="188.5" y="401.8809">ctl2</text><polygon fill="#FEFECE" filter="url(#fi4t2dwj3p2y1)" points="87,449.7109,313,449.7109,325,461.7109,313,473.7109,87,473.7109,75,461.7109,87,449.7109" style="stroke:#A80036;stroke-width:1.5;"/><text fill="#000000" font-family="sans-serif" font-size="11" lengthAdjust="spacing" textLength="226" x="87" y="465.519">!isRunning &amp;&amp; workers.remove(worker)</text><text fill="#000000" font-family="sans-serif" font-size="11" lengthAdjust="spacing" textLength="20" x="55" y="459.1167">yes</text><text fill="#000000" font-family="sans-serif" font-size="11" lengthAdjust="spacing" textLength="14" x="325" y="459.1167">no</text><rect fill="#FEFECE" filter="url(#fi4t2dwj3p2y1)" height="33.9688" rx="12.5" ry="12.5" style="stroke:#A80036;stroke-width:1.5;" width="108" x="11" y="483.7109"/><text fill="#000000" font-family="sans-serif" font-size="12" lengthAdjust="spacing" textLength="88" x="21" y="504.8496">reject(worker)</text><rect fill="#FEFECE" filter="url(#fi4t2dwj3p2y1)" height="33.9688" rx="12.5" ry="12.5" style="stroke:#A80036;stroke-width:1.5;" width="140" x="265" y="532.1133"/><text fill="#000000" font-family="sans-serif" font-size="12" lengthAdjust="spacing" textLength="120" x="275" y="553.252">addWorker(worker)</text><polygon fill="#FEFECE" filter="url(#fi4t2dwj3p2y1)" points="268,483.7109,402,483.7109,414,495.7109,402,507.7109,268,507.7109,256,495.7109,268,483.7109" style="stroke:#A80036;stroke-width:1.5;"/><text fill="#000000" font-family="sans-serif" font-size="11" lengthAdjust="spacing" textLength="20" x="339" y="517.9214">yes</text><text fill="#000000" font-family="sans-serif" font-size="11" lengthAdjust="spacing" textLength="134" x="268" y="499.519">workCountOf(ctl2) == 0</text><polygon fill="#FEFECE" filter="url(#fi4t2dwj3p2y1)" points="335,586.082,347,598.082,335,610.082,323,598.082,335,586.082" style="stroke:#A80036;stroke-width:1.5;"/><polygon fill="#FEFECE" filter="url(#fi4t2dwj3p2y1)" points="200,616.082,212,628.082,200,640.082,188,628.082,200,616.082" style="stroke:#A80036;stroke-width:1.5;"/><path d="M674,433.5625 L674,458.6953 L842,458.6953 L842,443.5625 L832,433.5625 L674,433.5625 " fill="#FBFB77" filter="url(#fi4t2dwj3p2y1)" style="stroke:#A80036;stroke-width:1.0;"/><path d="M832,433.5625 L832,443.5625 L842,443.5625 L832,433.5625 " fill="#FBFB77" style="stroke:#A80036;stroke-width:1.0;"/><text fill="#000000" font-family="sans-serif" font-size="13" lengthAdjust="spacing" textLength="147" x="680" y="450.6294">开启非核心线程执行任务;</text><rect fill="#FEFECE" filter="url(#fi4t2dwj3p2y1)" height="33.9688" rx="12.5" ry="12.5" style="stroke:#A80036;stroke-width:1.5;" width="108" x="496.5" y="429.1445"/><text fill="#000000" font-family="sans-serif" font-size="12" lengthAdjust="spacing" textLength="88" x="506.5" y="450.2832">reject(worker)</text><polygon fill="#FEFECE" filter="url(#fi4t2dwj3p2y1)" points="469,380.7422,632,380.7422,644,392.7422,632,404.7422,469,404.7422,457,392.7422,469,380.7422" style="stroke:#A80036;stroke-width:1.5;"/><text fill="#000000" font-family="sans-serif" font-size="11" lengthAdjust="spacing" textLength="14" x="554.5" y="414.9526">no</text><text fill="#000000" font-family="sans-serif" font-size="11" lengthAdjust="spacing" textLength="163" x="469" y="396.5503">addWorker(worker, nonCore)</text><text fill="#000000" font-family="sans-serif" font-size="11" lengthAdjust="spacing" textLength="20" x="644" y="390.1479">yes</text><polygon fill="#FEFECE" filter="url(#fi4t2dwj3p2y1)" points="550.5,487.5156,562.5,499.5156,550.5,511.5156,538.5,499.5156,550.5,487.5156" style="stroke:#A80036;stroke-width:1.5;"/><polygon fill="#FEFECE" filter="url(#fi4t2dwj3p2y1)" points="375.25,646.082,387.25,658.082,375.25,670.082,363.25,658.082,375.25,646.082" style="stroke:#A80036;stroke-width:1.5;"/><ellipse cx="375.25" cy="701.082" fill="#FFFFFF" filter="url(#fi4t2dwj3p2y1)" rx="11" ry="11" style="stroke:#000000;stroke-width:1.0;"/><ellipse cx="375.25" cy="701.082" fill="#000000" rx="6" ry="6" style="stroke:#7F7F7F;stroke-width:1.0;"/><line style="stroke:#A80036;stroke-width:1.5;" x1="375.25" x2="375.25" y1="30" y2="50"/><polygon fill="#A80036" points="371.25,40,375.25,50,379.25,40,375.25,44" style="stroke:#A80036;stroke-width:1.0;"/><line style="stroke:#A80036;stroke-width:1.5;" x1="375.25" x2="375.25" y1="83.9688" y2="103.9688"/><polygon fill="#A80036" points="371.25,93.9688,375.25,103.9688,379.25,93.9688,375.25,97.9688" style="stroke:#A80036;stroke-width:1.0;"/><line style="stroke:#A80036;stroke-width:1.5;" x1="375.25" x2="375.25" y1="230.3398" y2="302.7422"/><polygon fill="#A80036" points="371.25,292.7422,375.25,302.7422,379.25,292.7422,375.25,296.7422" style="stroke:#A80036;stroke-width:1.0;"/><line style="stroke:#A80036;stroke-width:1.5;" x1="457.25" x2="488.25" y1="218.3398" y2="218.3398"/><polygon fill="#A80036" points="478.25,214.3398,488.25,218.3398,478.25,222.3398,482.25,218.3398" style="stroke:#A80036;stroke-width:1.0;"/><line style="stroke:#A80036;stroke-width:1.5;" x1="375.25" x2="375.25" y1="181.9375" y2="206.3398"/><polygon fill="#A80036" points="371.25,196.3398,375.25,206.3398,379.25,196.3398,375.25,200.3398" style="stroke:#A80036;stroke-width:1.0;"/><line style="stroke:#A80036;stroke-width:1.5;" x1="427.25" x2="532.25" y1="169.9375" y2="169.9375"/><polygon fill="#A80036" points="528.25,232.3398,532.25,242.3398,536.25,232.3398,532.25,236.3398" style="stroke:#A80036;stroke-width:1.5;"/><line style="stroke:#A80036;stroke-width:1.5;" x1="532.25" x2="532.25" y1="169.9375" y2="314.7422"/><line style="stroke:#A80036;stroke-width:1.5;" x1="532.25" x2="387.25" y1="314.7422" y2="314.7422"/><polygon fill="#A80036" points="397.25,310.7422,387.25,314.7422,397.25,318.7422,393.25,314.7422" style="stroke:#A80036;stroke-width:1.0;"/><line style="stroke:#A80036;stroke-width:1.5;" x1="375.25" x2="375.25" y1="137.9375" y2="157.9375"/><polygon fill="#A80036" points="371.25,147.9375,375.25,157.9375,379.25,147.9375,375.25,151.9375" style="stroke:#A80036;stroke-width:1.0;"/><line style="stroke:#A80036;stroke-width:1.5;" x1="335" x2="335" y1="507.7109" y2="532.1133"/><polygon fill="#A80036" points="331,522.1133,335,532.1133,339,522.1133,335,526.1133" style="stroke:#A80036;stroke-width:1.0;"/><line style="stroke:#A80036;stroke-width:1.5;" x1="414" x2="426" y1="495.7109" y2="495.7109"/><polygon fill="#A80036" points="422,539.0977,426,549.0977,430,539.0977,426,543.0977" style="stroke:#A80036;stroke-width:1.5;"/><line style="stroke:#A80036;stroke-width:1.5;" x1="426" x2="426" y1="495.7109" y2="598.082"/><line style="stroke:#A80036;stroke-width:1.5;" x1="426" x2="347" y1="598.082" y2="598.082"/><polygon fill="#A80036" points="357,594.082,347,598.082,357,602.082,353,598.082" style="stroke:#A80036;stroke-width:1.0;"/><line style="stroke:#A80036;stroke-width:1.5;" x1="335" x2="335" y1="566.082" y2="586.082"/><polygon fill="#A80036" points="331,576.082,335,586.082,339,576.082,335,580.082" style="stroke:#A80036;stroke-width:1.0;"/><line style="stroke:#A80036;stroke-width:1.5;" x1="75" x2="65" y1="461.7109" y2="461.7109"/><line style="stroke:#A80036;stroke-width:1.5;" x1="65" x2="65" y1="461.7109" y2="483.7109"/><polygon fill="#A80036" points="61,473.7109,65,483.7109,69,473.7109,65,477.7109" style="stroke:#A80036;stroke-width:1.0;"/><line style="stroke:#A80036;stroke-width:1.5;" x1="325" x2="335" y1="461.7109" y2="461.7109"/><line style="stroke:#A80036;stroke-width:1.5;" x1="335" x2="335" y1="461.7109" y2="483.7109"/><polygon fill="#A80036" points="331,473.7109,335,483.7109,339,473.7109,335,477.7109" style="stroke:#A80036;stroke-width:1.0;"/><line style="stroke:#A80036;stroke-width:1.5;" x1="65" x2="65" y1="517.6797" y2="628.082"/><line style="stroke:#A80036;stroke-width:1.5;" x1="65" x2="188" y1="628.082" y2="628.082"/><polygon fill="#A80036" points="178,624.082,188,628.082,178,632.082,182,628.082" style="stroke:#A80036;stroke-width:1.0;"/><line style="stroke:#A80036;stroke-width:1.5;" x1="335" x2="335" y1="610.082" y2="628.082"/><line style="stroke:#A80036;stroke-width:1.5;" x1="335" x2="212" y1="628.082" y2="628.082"/><polygon fill="#A80036" points="222,624.082,212,628.082,222,632.082,218,628.082" style="stroke:#A80036;stroke-width:1.0;"/><line style="stroke:#A80036;stroke-width:1.5;" x1="200" x2="200" y1="414.7109" y2="449.7109"/><polygon fill="#A80036" points="196,439.7109,200,449.7109,204,439.7109,200,443.7109" style="stroke:#A80036;stroke-width:1.0;"/><line style="stroke:#A80036;stroke-width:1.5;" x1="550.5" x2="550.5" y1="404.7422" y2="429.1445"/><polygon fill="#A80036" points="546.5,419.1445,550.5,429.1445,554.5,419.1445,550.5,423.1445" style="stroke:#A80036;stroke-width:1.0;"/><line style="stroke:#A80036;stroke-width:1.5;" x1="644" x2="656" y1="392.7422" y2="392.7422"/><polygon fill="#A80036" points="652,436.1289,656,446.1289,660,436.1289,656,440.1289" style="stroke:#A80036;stroke-width:1.5;"/><line style="stroke:#A80036;stroke-width:1.5;" x1="656" x2="656" y1="392.7422" y2="499.5156"/><line style="stroke:#A80036;stroke-width:1.5;" x1="656" x2="562.5" y1="499.5156" y2="499.5156"/><polygon fill="#A80036" points="572.5,495.5156,562.5,499.5156,572.5,503.5156,568.5,499.5156" style="stroke:#A80036;stroke-width:1.0;"/><line style="stroke:#A80036;stroke-width:1.5;" x1="550.5" x2="550.5" y1="463.1133" y2="487.5156"/><polygon fill="#A80036" points="546.5,477.5156,550.5,487.5156,554.5,477.5156,550.5,481.5156" style="stroke:#A80036;stroke-width:1.0;"/><line style="stroke:#A80036;stroke-width:1.5;" x1="249.25" x2="200" y1="358.7422" y2="358.7422"/><line style="stroke:#A80036;stroke-width:1.5;" x1="200" x2="200" y1="358.7422" y2="380.7422"/><polygon fill="#A80036" points="196,370.7422,200,380.7422,204,370.7422,200,374.7422" style="stroke:#A80036;stroke-width:1.0;"/><line style="stroke:#A80036;stroke-width:1.5;" x1="501.25" x2="550.5" y1="358.7422" y2="358.7422"/><line style="stroke:#A80036;stroke-width:1.5;" x1="550.5" x2="550.5" y1="358.7422" y2="380.7422"/><polygon fill="#A80036" points="546.5,370.7422,550.5,380.7422,554.5,370.7422,550.5,374.7422" style="stroke:#A80036;stroke-width:1.0;"/><line style="stroke:#A80036;stroke-width:1.5;" x1="200" x2="200" y1="640.082" y2="658.082"/><line style="stroke:#A80036;stroke-width:1.5;" x1="200" x2="363.25" y1="658.082" y2="658.082"/><polygon fill="#A80036" points="353.25,654.082,363.25,658.082,353.25,662.082,357.25,658.082" style="stroke:#A80036;stroke-width:1.0;"/><line style="stroke:#A80036;stroke-width:1.5;" x1="550.5" x2="550.5" y1="511.5156" y2="658.082"/><line style="stroke:#A80036;stroke-width:1.5;" x1="550.5" x2="387.25" y1="658.082" y2="658.082"/><polygon fill="#A80036" points="397.25,654.082,387.25,658.082,397.25,662.082,393.25,658.082" style="stroke:#A80036;stroke-width:1.0;"/><line style="stroke:#A80036;stroke-width:1.5;" x1="375.25" x2="375.25" y1="326.7422" y2="346.7422"/><polygon fill="#A80036" points="371.25,336.7422,375.25,346.7422,379.25,336.7422,375.25,340.7422" style="stroke:#A80036;stroke-width:1.0;"/><line style="stroke:#A80036;stroke-width:1.5;" x1="375.25" x2="375.25" y1="670.082" y2="690.082"/><polygon fill="#A80036" points="371.25,680.082,375.25,690.082,379.25,680.082,375.25,684.082" style="stroke:#A80036;stroke-width:1.0;"/></g></svg>